PathFileType	4	(x/y/z)	S04_SL_Cal.trc
DataRate	CameraRate	NumFrames	NumMarkers	Units	OrigDataRate	OrigDataStartFrame	OrigNumFrames
240	240	9	51	mm	240	1801	2400
Frame#	Time	Sternum			R.Acromium			L.Acromium			Top.Head			R.ASIS			L.ASIS			R.PSIS			L.PSIS			R.Great.Tro			L.Great.Tro			R.Iliac.Crest			L.Iliac.Crest			V.Sacral			R.Thigh.Upper.Post			R.Thigh.Lower.Ant			R.Thigh.Lower.Post			R.Thigh.Upper.Ant			R.Knee.Lat			R.Knee.Med			R.Shank.Upper.Post			R.Shank.Lower.Ant			R.Shank.Lower.Post			R.Shank.Upper.Ant			R.Ankle.Lat			R.Ankle.Med			R.Heel.Upper			R.Heel.Med			R.Heel.Lat			R.Toe.Lat			R.Toe.Med			R.Toe.Tip			L.Thigh.Upper.Post			L.Thigh.Lower.Ant			L.Thigh.Lower.Post			L.Thigh.Upper.Ant			L.Knee.Lat			L.Knee.Med			L.Shank.Upper.Post			L.Shank.Lower.Ant			L.Shank.Lower.Post			L.Shank.Upper.Ant			L.Ankle.Lat			L.Ankle.Med			L.Heel.Upper			L.Heel.Med			L.Heel.Lat			L.Toe.Lat			L.Toe.Med			L.Toe.Tip			Cervical.Spine			Back			
		X1	Y1	Z1	X2	Y2	Z2	X3	Y3	Z3	X4	Y4	Z4	X5	Y5	Z5	X6	Y6	Z6	X7	Y7	Z7	X8	Y8	Z8	X9	Y9	Z9	X10	Y10	Z10	X11	Y11	Z11	X12	Y12	Z12	X13	Y13	Z13	X14	Y14	Z14	X15	Y15	Z15	X16	Y16	Z16	X17	Y17	Z17	X18	Y18	Z18	X19	Y19	Z19	X20	Y20	Z20	X21	Y21	Z21	X22	Y22	Z22	X23	Y23	Z23	X24	Y24	Z24	X25	Y25	Z25	X26	Y26	Z26	X27	Y27	Z27	X28	Y28	Z28	X29	Y29	Z29	X30	Y30	Z30	X31	Y31	Z31	X32	Y32	Z32	X33	Y33	Z33	X34	Y34	Z34	X35	Y35	Z35	X36	Y36	Z36	X37	Y37	Z37	X38	Y38	Z38	X39	Y39	Z39	X40	Y40	Z40	X41	Y41	Z41	X42	Y42	Z42	X43	Y43	Z43	X44	Y44	Z44	X45	Y45	Z45	X46	Y46	Z46	X47	Y47	Z47	X48	Y48	Z48	X49	Y49	Z49	X50	Y50	Z50	X51	Y51	Z51	

1801	7.5	351.25	1293.8	276.25	207.58	1521.7	450.71	194.33	1509.8	111.34	204.16	1838.3	268.89	329.17	1002.2	415.99	333.81	1014.3	166.08	120.13	1047	314.57	128.94	1049.9	232.69	232	929.18	480.26	211.56	937.25	100.53	247.46	1097.8	457.69	233.64	1101.8	118.66	101.29	1008	273.54	203.52	676.02	492.89	270.46	583.94	466.25	194.4	585.34	486.41	289.9	692.82	477.5	211.74	515.62	479.68	190.43	498.92	354.8	135.68	294.02	495.73	208.13	215.59	465.25	135.87	222.71	485.01	201.25	287.14	483.27	155.55	108.15	476.13	182.44	114.6	389.08	96.855	74.002	419.76	109.14	43.952	390.67	97.646	41.985	454.36	262.15	40.033	519.3	311.33	40.573	404.03	368.52	58.48	458.63	165.89	712.87	96.327	234.24	607.22	90.418	163.79	623.38	98.811	231.56	697.57	81.902	191.04	522.2	96.187	192.86	500.16	218.15	108.94	343.11	81.699	183.7	261.95	74.256	119.77	265.36	83.421	172.07	337.94	73.173	175.99	105.86	82.004	185.25	109.1	173.34	106.02	71.714	122.02	112.72	46.841	155.56	110.51	44.281	94.16	293.71	43.178	52.996	326.39	49.448	168.26	382.88	59.34	118.12	159.14	1555.6	285.78	92.657	1298.1	266.56
1802	7.5042	351.26	1293.8	276.26	207.59	1521.7	450.73	194.34	1509.8	111.35	204.18	1838.3	268.91	329.19	1002.2	415.99	333.83	1014.3	166.07	120.15	1047	314.57	128.95	1049.9	232.69	232.01	929.18	480.26	211.58	937.25	100.53	247.47	1097.8	457.69	233.65	1101.8	118.66	101.3	1008	273.54	203.54	676.02	492.89	270.48	583.94	466.25	194.42	585.34	486.41	289.91	692.82	477.5	211.75	515.62	479.67	190.44	498.92	354.8	135.69	294.03	495.73	208.14	215.59	465.25	135.87	222.72	485.01	201.26	287.14	483.27	155.55	108.15	476.13	182.44	114.6	389.08	96.856	74.003	419.75	109.14	43.951	390.67	97.646	41.988	454.36	262.15	40.033	519.3	311.34	40.573	404.03	368.52	58.48	458.63	165.9	712.88	96.324	234.25	607.22	90.415	163.8	623.39	98.809	231.57	697.57	81.898	191.05	522.2	96.185	192.87	500.16	218.15	108.94	343.11	81.697	183.7	261.95	74.255	119.77	265.36	83.418	172.08	337.94	73.172	175.99	105.86	82.003	185.25	109.1	173.34	106.02	71.715	122.02	112.72	46.842	155.56	110.51	44.282	94.16	293.71	43.177	52.995	326.4	49.448	168.26	382.88	59.339	118.12	159.15	1555.6	285.79	92.666	1298.1	266.56
1803	7.5083	351.26	1293.8	276.27	207.59	1521.7	450.74	194.36	1509.8	111.36	204.2	1838.4	268.93	329.2	1002.2	415.99	333.84	1014.3	166.07	120.16	1047	314.57	128.96	1049.9	232.69	232.03	929.18	480.25	211.59	937.25	100.52	247.48	1097.8	457.69	233.66	1101.8	118.66	101.32	1008	273.54	203.55	676.02	492.89	270.49	583.94	466.24	194.43	585.34	486.41	289.93	692.82	477.5	211.76	515.63	479.67	190.45	498.92	354.8	135.69	294.03	495.73	208.14	215.59	465.25	135.86	222.72	485.01	201.26	287.15	483.27	155.55	108.15	476.13	182.44	114.61	389.08	96.857	74.003	419.75	109.14	43.951	390.67	97.647	41.992	454.36	262.15	40.034	519.3	311.34	40.573	404.03	368.52	58.479	458.63	165.91	712.88	96.321	234.26	607.22	90.413	163.81	623.39	98.807	231.58	697.57	81.894	191.05	522.2	96.183	192.88	500.16	218.15	108.94	343.12	81.695	183.71	261.95	74.253	119.78	265.36	83.414	172.08	337.94	73.17	175.99	105.86	82.003	185.26	109.1	173.34	106.02	71.715	122.03	112.72	46.843	155.56	110.51	44.283	94.16	293.71	43.177	52.995	326.4	49.448	168.26	382.88	59.339	118.11	159.16	1555.6	285.81	92.677	1298.1	266.57
1804	7.5125	351.27	1293.8	276.28	207.59	1521.7	450.75	194.37	1509.8	111.37	204.23	1838.4	268.95	329.22	1002.2	415.99	333.85	1014.3	166.07	120.18	1047	314.57	128.98	1049.9	232.69	232.05	929.18	480.25	211.6	937.25	100.52	247.5	1097.8	457.69	233.68	1101.8	118.66	101.34	1008	273.54	203.57	676.02	492.89	270.5	583.94	466.24	194.44	585.34	486.41	289.94	692.82	477.5	211.78	515.63	479.67	190.46	498.92	354.8	135.7	294.03	495.73	208.15	215.59	465.25	135.84	222.73	485	201.27	287.15	483.27	155.55	108.15	476.13	182.44	114.61	389.08	96.858	74.004	419.75	109.15	43.951	390.67	97.647	41.995	454.36	262.15	40.034	519.3	311.34	40.573	404.03	368.52	58.478	458.63	165.92	712.88	96.318	234.27	607.22	90.411	163.82	623.39	98.805	231.59	697.57	81.89	191.06	522.2	96.182	192.88	500.16	218.15	108.95	343.12	81.693	183.71	261.95	74.251	119.78	265.37	83.411	172.09	337.95	73.169	175.99	105.86	82.003	185.26	109.1	173.34	106.02	71.716	122.03	112.72	46.844	155.56	110.51	44.284	94.16	293.71	43.177	52.995	326.4	49.448	168.26	382.88	59.338	118.11	159.17	1555.6	285.82	92.687	1298.1	266.57
1805	7.5167	351.28	1293.8	276.29	207.59	1521.7	450.76	194.38	1509.8	111.39	204.25	1838.4	268.97	329.24	1002.2	415.99	333.87	1014.3	166.07	120.19	1047	314.57	128.99	1049.9	232.69	232.06	929.18	480.25	211.62	937.26	100.52	247.51	1097.8	457.69	233.69	1101.9	118.66	101.35	1008	273.54	203.58	676.03	492.89	270.51	583.94	466.24	194.46	585.34	486.41	289.96	692.82	477.49	211.79	515.63	479.67	190.47	498.92	354.8	135.71	294.04	495.73	208.15	215.59	465.25	135.82	222.74	485	201.28	287.15	483.27	155.55	108.15	476.13	182.44	114.61	389.08	96.859	74.005	419.75	109.15	43.951	390.67	97.648	41.998	454.36	262.15	40.034	519.3	311.34	40.573	404.03	368.52	58.477	458.63	165.93	712.88	96.314	234.28	607.22	90.409	163.83	623.39	98.802	231.6	697.58	81.886	191.07	522.2	96.18	192.89	500.17	218.15	108.96	343.12	81.691	183.72	261.95	74.249	119.79	265.37	83.408	172.09	337.95	73.168	176	105.86	82.004	185.26	109.1	173.34	106.02	71.717	122.03	112.72	46.845	155.56	110.51	44.285	94.16	293.71	43.177	52.994	326.4	49.448	168.26	382.88	59.338	118.11	159.18	1555.6	285.83	92.699	1298.1	266.58
1806	7.5208	351.29	1293.8	276.3	207.6	1521.7	450.77	194.4	1509.8	111.4	204.27	1838.4	268.99	329.25	1002.2	415.99	333.88	1014.3	166.07	120.21	1047	314.57	129.01	1049.9	232.69	232.07	929.18	480.25	211.63	937.26	100.52	247.53	1097.8	457.69	233.7	1101.9	118.66	101.37	1008	273.54	203.6	676.03	492.89	270.53	583.94	466.23	194.47	585.34	486.41	289.97	692.82	477.49	211.8	515.63	479.67	190.48	498.92	354.8	135.71	294.04	495.73	208.15	215.59	465.25	135.79	222.76	484.99	201.28	287.16	483.27	155.55	108.15	476.13	182.44	114.61	389.08	96.86	74.005	419.75	109.15	43.951	390.68	97.649	42.002	454.36	262.15	40.035	519.3	311.34	40.574	404.03	368.52	58.476	458.63	165.94	712.88	96.311	234.29	607.22	90.407	163.84	623.4	98.8	231.62	697.58	81.882	191.08	522.21	96.179	192.9	500.17	218.14	108.96	343.12	81.69	183.72	261.96	74.248	119.79	265.37	83.406	172.1	337.95	73.167	176	105.86	82.005	185.26	109.1	173.34	106.02	71.718	122.03	112.72	46.846	155.56	110.51	44.287	94.16	293.71	43.176	52.994	326.4	49.448	168.26	382.88	59.337	118.11	159.19	1555.6	285.84	92.711	1298.1	266.58
1807	7.525	351.31	1293.8	276.31	207.6	1521.7	450.78	194.41	1509.8	111.41	204.29	1838.4	269.01	329.27	1002.2	415.99	333.9	1014.3	166.07	120.22	1047	314.57	129.03	1049.9	232.69	232.09	929.18	480.25	211.65	937.26	100.52	247.55	1097.8	457.69	233.72	1101.9	118.66	101.39	1008	273.54	203.61	676.03	492.89	270.54	583.94	466.23	194.48	585.34	486.41	289.99	692.82	477.49	211.81	515.64	479.67	190.49	498.92	354.8	135.72	294.04	495.73	208.16	215.59	465.25	135.76	222.77	484.99	201.29	287.16	483.27	155.55	108.15	476.13	182.45	114.61	389.08	96.861	74.006	419.75	109.15	43.951	390.68	97.65	42.005	454.36	262.16	40.035	519.3	311.34	40.574	404.03	368.52	58.475	458.63	165.95	712.88	96.308	234.3	607.22	90.406	163.85	623.4	98.798	231.63	697.58	81.879	191.09	522.21	96.178	192.91	500.17	218.14	108.97	343.12	81.688	183.73	261.96	74.246	119.8	265.37	83.403	172.11	337.95	73.167	176	105.86	82.007	185.26	109.1	173.33	106.02	71.719	122.03	112.72	46.847	155.56	110.51	44.288	94.16	293.71	43.176	52.994	326.4	49.448	168.26	382.88	59.336	118.11	159.2	1555.6	285.86	92.724	1298.1	266.58
1808	7.5292	351.32	1293.8	276.31	207.6	1521.7	450.79	194.43	1509.8	111.42	204.31	1838.4	269.03	329.28	1002.2	415.99	333.91	1014.3	166.07	120.24	1047	314.57	129.04	1049.9	232.69	232.1	929.18	480.25	211.66	937.26	100.52	247.56	1097.8	457.69	233.73	1101.9	118.67	101.4	1008	273.54	203.63	676.03	492.89	270.55	583.94	466.23	194.49	585.34	486.41	290	692.82	477.49	211.82	515.64	479.67	190.5	498.93	354.8	135.72	294.04	495.72	208.16	215.59	465.25	135.72	222.79	484.98	201.3	287.16	483.27	155.56	108.15	476.13	182.45	114.61	389.08	96.862	74.007	419.75	109.15	43.952	390.68	97.65	42.009	454.36	262.16	40.036	519.3	311.34	40.574	404.03	368.52	58.474	458.63	165.97	712.88	96.304	234.31	607.22	90.405	163.86	623.4	98.796	231.64	697.58	81.876	191.1	522.21	96.178	192.92	500.17	218.14	108.97	343.13	81.686	183.74	261.96	74.245	119.8	265.38	83.4	172.11	337.95	73.167	176.01	105.86	82.009	185.27	109.09	173.33	106.03	71.721	122.03	112.72	46.848	155.56	110.51	44.29	94.159	293.71	43.176	52.993	326.4	49.448	168.26	382.88	59.336	118.11	159.21	1555.6	285.87	92.737	1298.1	266.59
1809	7.5333	351.33	1293.8	276.32	207.6	1521.7	450.8	194.44	1509.8	111.43	204.32	1838.4	269.05	329.3	1002.2	415.99	333.93	1014.4	166.07	120.25	1047	314.57	129.06	1049.9	232.69	232.12	929.18	480.25	211.68	937.26	100.51	247.58	1097.8	457.69	233.75	1101.9	118.67	101.42	1008	273.54	203.64	676.03	492.89	270.56	583.94	466.23	194.5	585.34	486.41	290.01	692.82	477.49	211.83	515.64	479.67	190.51	498.93	354.8	135.73	294.05	495.72	208.17	215.59	465.25	135.67	222.81	484.97	201.3	287.17	483.27	155.56	108.15	476.12	182.45	114.61	389.08	96.863	74.008	419.75	109.15	43.952	390.68	97.651	42.013	454.36	262.16	40.036	519.3	311.35	40.574	404.03	368.52	58.474	458.63	165.98	712.88	96.301	234.32	607.22	90.404	163.88	623.4	98.794	231.65	697.58	81.874	191.11	522.21	96.178	192.93	500.18	218.14	108.98	343.13	81.684	183.74	261.96	74.244	119.81	265.38	83.397	172.12	337.95	73.167	176.01	105.85	82.012	185.27	109.09	173.33	106.03	71.723	122.03	112.72	46.85	155.56	110.51	44.291	94.159	293.71	43.176	52.993	326.4	49.448	168.26	382.89	59.335	118.11	159.22	1555.6	285.88	92.751	1298.1	266.59
